# xmcd CD database file
# Copyright (C) 1993-1998 Ti Kan
# 
# Track frame offsets:
#     150
#     11352
#     28872
#     41765
#     52457
#     62577
#     89700
#     101945
#     115625
#     132145
#     143657
#     157330
# 
# Disc length: 2297 seconds
# 
# Revision: 1
# Processed by: cddbd v1.4b41PL1 Copyright (c) Steve Scherf et al.
# Submitted via: DiscPlay 4.0.4
# 
DISCID=ae08f70c
DTITLE=The Usuals - usuals
DYEAR=1900
DGENRE=
TTITLE0=Don't Tell
TTITLE1=Down For The Count
TTITLE2=EVEN WHEN
TTITLE3=ROCKET POWER
TTITLE4=ORANGE BOY
TTITLE5=TOKYO ROSE
TTITLE6=EXPLANATION
TTITLE7=C'EST LA CHA CHA
TTITLE8=ST. JOHN'S (THE LAZY RIVER)
TTITLE9=CARRY ON
TTITLE10=AT SHIRLEY and JUICY'S
TTITLE11=MOONLIGHT LOVER
EXTD=Gainesville, FL. Local Band
EXTT0=
EXTT1=
EXTT2=
EXTT3=
EXTT4=
EXTT5=
EXTT6=
EXTT7=
EXTT8=
EXTT9=
EXTT10=
EXTT11=
PLAYORDER=
